{"glyphs":{"0":{"ha":532,"x_min":0,"x_max":0,"o":""},"1":{"ha":694,"x_min":0,"x_max":0,"o":""},"2":{"ha":660,"x_min":0,"x_max":0,"o":""},"3":{"ha":694,"x_min":0,"x_max":0,"o":""},"4":{"ha":556,"x_min":0,"x_max":0,"o":""},"5":{"ha":694,"x_min":0,"x_max":0,"o":""},"6":{"ha":694,"x_min":0,"x_max":0,"o":""},"7":{"ha":694,"x_min":0,"x_max":0,"o":""},"8":{"ha":694,"x_min":0,"x_max":0,"o":""},"9":{"ha":694,"x_min":0,"x_max":0,"o":""},"\u0000":{"ha":614,"x_min":-3,"x_max":651,"o":"m 442 544 l 386 496 q 326 425 349 463 q 306 244 278 342 l 307 242 l 190 242 q 200 310 193 283 q 226 365 207 338 q 263 410 246 393 q 324 468 281 428 l 325 469 q 403 539 328 472 q 426 563 417 551 q 456 600 443 581 q 465 613 460 604 q 512 717 503 668 q 503 828 521 767 q 401 973 476 917 q 232 1029 325 1029 q 112 1002 161 1029 q 24 910 63 975 q 14 904 21 904 q 3 910 7 904 q 3 924 -1 917 q 131 1062 57 1013 q 285 1111 206 1111 q 486 1049 397 1111 q 604 890 575 988 q 442 544 651 735 m 246 189 l 369 104 l 246 18 l 122 104 l 246 189 z "}," ":{"ha":625,"x_min":0,"x_max":0,"o":""},"!":{"ha":472,"x_min":150,"x_max":322,"o":"m 246 299 l 226 299 l 151 1090 l 321 1090 l 246 299 m 151 18 l 151 188 l 321 188 l 321 18 l 151 18 z "},"\"":{"ha":647,"x_min":110,"x_max":536,"o":"m 281 942 l 196 740 l 113 740 l 261 942 l 110 942 l 110 1111 l 281 1111 l 281 942 m 536 1111 l 536 942 l 450 740 l 368 740 l 517 942 l 365 942 l 365 1111 l 536 1111 z "},"&":{"ha":1074,"x_min":10,"x_max":1064,"o":"m 1063 665 q 981 641 1018 665 q 924 576 943 617 q 768 310 847 413 l 1010 47 q 1039 35 1021 35 l 1039 15 l 746 15 l 746 35 q 791 64 778 35 q 782 117 804 93 l 693 214 q 496 54 600 111 q 300 -3 392 -3 q 91 64 171 -3 q 11 238 11 131 q 326 624 11 411 q 216 771 250 710 q 182 897 182 832 q 254 1050 182 989 q 436 1111 326 1111 q 603 1063 536 1111 q 672 943 671 1015 q 619 818 672 876 q 438 674 565 760 l 751 331 q 806 547 789 404 q 807 560 807 554 q 776 634 807 603 q 701 665 744 665 l 701 685 l 1063 685 l 1063 665 m 299 939 q 328 822 299 879 q 424 689 357 765 q 533 814 503 754 q 564 939 564 874 q 527 1047 564 1004 q 436 1090 490 1090 q 338 1047 376 1090 q 299 939 299 1003 m 638 192 q 655 233 654 208 q 639 275 656 257 l 378 564 q 336 583 361 582 q 293 569 311 585 q 131 286 131 425 q 198 128 131 189 q 371 68 265 68 q 638 192 510 68 z "},"'":{"ha":500,"x_min":164,"x_max":336,"o":"m 335 942 l 250 740 l 168 740 l 315 942 l 165 942 l 165 1111 l 335 1111 l 335 942 z "},"(":{"ha":286,"x_min":-14,"x_max":299,"o":"m 299 1090 q 210 967 250 1039 q 154 835 176 907 q 114 554 114 704 q 154 274 114 404 q 210 142 176 201 q 299 18 250 69 q 225 54 264 29 q 192 79 204 67 q 175 92 182 86 l 160 106 q 61 239 103 161 q -12 554 -12 382 q 61 869 -12 726 q 160 1003 103 947 l 175 1017 q 192 1029 182 1022 q 225 1054 204 1042 q 299 1090 264 1079 z "},")":{"ha":285,"x_min":-14,"x_max":299,"o":"m -14 1090 q 75 967 35 1039 q 131 835 108 907 q 171 554 171 704 q 131 274 171 404 q 75 142 108 201 q -14 18 35 69 q 60 54 21 29 q 93 79 81 67 q 110 92 103 86 l 125 106 q 224 239 182 161 q 297 554 297 382 q 224 869 297 726 q 125 1003 182 947 l 110 1017 q 93 1029 103 1022 q 60 1054 81 1042 q -14 1090 21 1079 z "},"*":{"ha":489,"x_min":21,"x_max":468,"o":"m 344 846 l 401 729 l 286 786 l 244 667 l 203 786 l 88 731 l 144 846 l 22 888 l 143 929 l 86 1044 l 201 988 l 244 1111 l 286 989 l 403 1044 l 346 929 l 467 888 l 344 846 z "},"+":{"ha":658,"x_min":21,"x_max":638,"o":"m 636 611 l 636 499 l 385 499 l 385 247 l 274 247 l 274 499 l 22 499 l 22 611 l 274 611 l 274 861 l 385 861 l 385 611 l 636 611 z "},",":{"ha":317,"x_min":72,"x_max":244,"o":"m 243 18 l 158 -183 l 76 -183 l 224 18 l 74 18 l 74 188 l 243 188 l 243 18 z "},"-":{"ha":658,"x_min":21,"x_max":638,"o":"m 636 499 l 22 499 l 22 610 l 636 610 l 636 499 z "},".":{"ha":292,"x_min":60,"x_max":232,"o":"m 61 18 l 61 188 l 231 188 l 231 18 l 61 18 z "},"/":{"ha":1014,"x_min":132,"x_max":882,"o":"m 743 1090 l 882 1090 l 271 18 l 132 18 l 743 1090 z "},":":{"ha":431,"x_min":129,"x_max":301,"o":"m 131 18 l 131 188 l 300 188 l 300 18 l 131 18 m 131 528 l 131 699 l 300 699 l 300 528 l 131 528 z "},";":{"ha":431,"x_min":129,"x_max":301,"o":"m 300 18 l 215 -183 l 133 -183 l 281 18 l 131 18 l 131 188 l 300 188 l 300 18 m 131 528 l 131 699 l 300 699 l 300 528 l 131 528 z "},"<":{"ha":624,"x_min":22,"x_max":603,"o":"m 161 554 l 601 283 l 464 283 l 24 554 l 464 825 l 601 825 l 161 554 z "},"=":{"ha":658,"x_min":21,"x_max":638,"o":"m 22 606 l 22 717 l 636 717 l 636 606 l 22 606 m 22 392 l 22 503 l 636 503 l 636 392 l 22 392 z "},">":{"ha":622,"x_min":21,"x_max":601,"o":"m 160 825 l 600 554 l 160 283 l 22 283 l 463 554 l 22 825 l 160 825 z "},"?":{"ha":742,"x_min":61,"x_max":715,"o":"m 668 890 q 506 544 715 733 l 450 496 q 390 425 413 463 q 363 274 347 353 l 258 274 q 291 367 267 333 q 388 469 315 401 l 389 469 q 467 539 392 472 q 490 563 481 551 q 521 600 507 581 q 529 613 524 604 q 576 717 567 668 q 567 828 585 767 q 465 973 540 917 q 296 1029 389 1029 q 176 1002 225 1029 q 88 911 126 975 q 78 904 85 904 q 67 910 71 904 q 67 924 63 917 q 195 1062 121 1013 q 349 1111 269 1111 q 550 1049 461 1111 q 668 890 639 988 m 225 18 l 225 189 l 394 189 l 394 18 l 225 18 z "},"A":{"ha":1106,"x_min":-5437,"x_max":1085,"o":"m 965 119 q 1011 60 979 83 q 1083 38 1043 38 l 1083 18 l 706 18 l 706 38 q 790 81 760 38 q 801 175 821 125 l 685 490 q 640 528 672 521 q 585 511 608 535 l 228 156 q 208 108 208 136 q 236 53 208 74 q 260 42 247 46 q 285 38 272 38 l 285 18 l 22 18 l 22 38 q 99 62 64 38 q 147 125 133 86 l 451 953 q 457 983 457 968 q 431 1045 457 1019 q 369 1071 406 1071 l 369 1090 l 606 1090 l 965 119 m 603 558 q 624 653 644 599 l 492 1007 l 211 242 q 222 208 203 221 q 257 213 242 196 l 603 558 m -5436 -2517 z "},"B":{"ha":917,"x_min":21,"x_max":896,"o":"m 635 554 q 819 472 743 550 q 894 286 894 394 q 816 97 894 175 q 626 18 738 18 l 253 18 l 22 18 l 22 38 q 108 74 72 38 q 144 161 144 110 l 144 949 q 108 1035 144 999 q 22 1071 72 1071 l 22 1090 l 569 1090 q 753 1017 675 1088 q 838 843 831 946 q 787 665 846 743 q 635 563 728 586 q 631 558 631 563 l 635 554 m 256 1071 l 256 654 q 282 590 256 617 q 346 564 308 564 l 469 564 q 592 594 535 564 q 685 678 650 624 q 728 822 728 743 q 726 850 728 836 q 644 1008 717 944 q 475 1071 571 1071 l 256 1071 m 783 286 q 742 431 783 365 q 649 515 707 485 q 525 544 590 544 l 346 544 q 282 518 308 544 q 256 454 256 492 l 256 38 l 531 38 q 700 101 628 38 q 782 258 772 164 q 783 286 783 272 z "},"C":{"ha":1014,"x_min":22,"x_max":992,"o":"m 972 386 l 992 383 l 938 104 q 919 92 932 100 q 869 63 907 83 q 791 28 831 43 q 693 4 751 14 q 579 -1 635 -6 q 315 79 414 17 q 107 268 169 175 q 44 403 67 326 q 22 554 22 479 q 44 706 22 629 q 107 840 67 782 q 315 1029 169 933 q 579 1108 414 1092 q 688 1107 635 1114 q 776 1088 740 1100 q 839 1062 811 1075 q 881 1038 867 1049 l 893 1028 l 894 1022 l 947 750 l 928 746 q 877 877 906 819 q 822 971 849 935 q 765 1034 794 1007 q 708 1072 735 1061 q 655 1090 681 1082 q 610 1096 629 1099 q 575 1094 590 1093 l 565 1092 q 339 997 440 1072 q 197 793 249 931 q 156 554 156 681 q 197 315 156 428 q 339 111 249 178 q 565 15 440 36 q 575 14 568 15 q 617 13 593 14 q 670 21 640 11 q 731 44 700 31 q 795 88 761 58 q 860 156 829 118 q 920 254 890 194 q 972 386 950 314 z "},"D":{"ha":1019,"x_min":22,"x_max":997,"o":"m 425 1092 q 703 1021 571 1092 q 915 826 835 950 q 997 557 996 701 l 997 553 q 915 284 996 408 q 703 88 835 160 q 425 18 571 17 l 257 18 l 22 18 l 22 38 q 110 74 74 38 q 146 161 146 110 l 146 949 q 110 1036 146 1000 q 22 1072 74 1072 l 22 1090 l 257 1092 l 425 1092 m 886 553 l 886 557 q 843 763 885 665 q 726 935 801 861 l 725 938 q 559 1036 661 1000 q 361 1072 457 1072 l 347 1072 q 283 1045 310 1072 q 257 982 257 1018 l 257 126 q 283 64 257 90 q 347 38 310 38 l 361 38 q 559 72 457 36 q 725 172 661 108 l 726 174 q 843 345 801 247 q 886 553 885 443 z "},"E":{"ha":917,"x_min":21,"x_max":896,"o":"m 256 38 l 588 38 q 783 113 700 38 q 875 300 865 189 l 894 300 l 871 18 l 22 18 l 22 38 q 108 74 72 38 q 144 161 144 110 l 144 949 q 108 1035 144 999 q 22 1071 72 1071 l 22 1090 l 851 1090 l 875 808 l 856 808 q 763 996 846 921 q 568 1071 681 1071 l 256 1071 l 256 654 q 282 590 256 617 q 346 564 308 564 l 458 564 q 585 617 532 564 q 638 743 638 669 l 657 743 l 657 367 l 638 367 q 585 493 638 440 q 458 546 532 546 l 346 546 q 282 519 308 546 q 256 456 256 493 l 256 38 z "},"F":{"ha":917,"x_min":31,"x_max":886,"o":"m 885 808 l 865 808 q 773 996 856 921 q 578 1071 690 1071 l 265 1071 l 265 654 q 292 590 265 617 q 356 564 318 564 l 458 564 q 585 617 532 564 q 638 743 638 669 l 657 743 l 657 367 l 638 367 q 585 493 638 440 q 458 546 532 546 l 356 546 q 292 519 318 546 q 265 456 265 493 l 265 160 q 301 74 265 110 q 389 38 338 38 l 389 18 l 32 18 l 32 38 q 118 74 82 38 q 154 161 154 110 l 154 949 q 118 1035 154 999 q 32 1071 82 1071 l 32 1090 l 861 1090 l 885 808 z "},"G":{"ha":1025,"x_min":22,"x_max":1003,"o":"m 1003 -3 l 983 -3 q 947 63 983 40 q 872 68 910 86 l 843 54 q 579 0 719 -12 q 315 79 415 17 q 107 268 169 175 q 46 403 68 326 q 22 554 24 479 q 46 706 24 629 q 107 840 68 782 q 315 1029 169 933 q 579 1110 414 1092 q 692 1106 635 1114 q 790 1082 749 1097 q 864 1051 831 1067 q 915 1024 897 1035 l 932 1013 l 933 1006 l 985 733 l 967 731 l 964 740 q 664 1090 865 1054 q 515 1082 593 1103 q 446 1058 479 1072 q 339 997 389 1033 q 197 793 250 931 q 156 554 156 681 q 197 315 156 428 q 339 111 250 179 q 565 17 440 38 q 607 14 586 14 q 654 17 631 14 q 715 33 686 22 q 776 64 744 43 q 835 121 808 85 q 876 206 861 157 q 892 308 892 253 l 892 474 l 546 557 l 1003 557 l 1003 -3 z "},"H":{"ha":1153,"x_min":22,"x_max":1131,"o":"m 1007 949 l 1007 161 q 1043 74 1007 110 q 1131 38 1079 38 l 1131 18 l 774 18 l 774 38 q 860 74 824 38 q 896 161 896 110 l 896 454 q 869 517 896 490 q 806 544 843 544 l 347 544 q 283 517 310 544 q 257 454 257 490 l 257 160 q 292 74 257 110 q 379 38 328 38 l 379 18 l 22 18 l 22 38 q 109 74 74 38 q 144 160 144 110 l 144 949 q 109 1035 144 999 q 22 1071 74 1071 l 22 1090 l 379 1090 l 379 1071 q 292 1035 328 1071 q 257 949 257 999 l 257 653 q 283 589 257 615 q 347 563 310 563 l 806 563 q 869 589 843 563 q 896 653 896 615 l 896 949 q 860 1035 896 999 q 774 1071 824 1071 l 774 1090 l 1131 1090 l 1131 1071 q 1043 1035 1079 1071 q 1007 949 1007 999 z "},"I":{"ha":400,"x_min":21,"x_max":379,"o":"m 256 160 q 292 74 256 110 q 378 38 328 38 l 379 38 l 379 18 l 21 18 l 21 38 q 108 74 72 38 q 144 160 144 110 l 144 949 q 108 1035 144 999 q 21 1071 72 1071 l 21 1090 l 379 1090 l 379 1071 l 378 1071 q 292 1035 328 1071 q 256 949 256 999 l 256 160 z "},"J":{"ha":469,"x_min":21,"x_max":449,"o":"m 213 38 l 214 949 q 178 1035 214 1000 q 90 1071 142 1071 l 90 1092 l 449 1090 l 449 1071 l 447 1071 q 361 1035 397 1071 q 325 949 325 1000 l 324 38 q 301 -53 324 -11 q 231 -126 276 -99 q 133 -154 186 -154 l 21 -154 q 120 -126 75 -154 q 190 -53 165 -99 q 213 38 213 -10 z "},"K":{"ha":1063,"x_min":-1,"x_max":1061,"o":"m 235 618 q 251 591 235 599 q 283 596 268 583 l 743 1000 q 751 1046 763 1021 q 713 1071 740 1071 l 713 1090 l 982 1090 l 982 1071 q 942 1057 960 1071 l 358 606 q 348 574 342 593 q 375 554 354 554 l 468 554 l 1024 53 q 1061 38 1039 38 l 1061 18 l 793 18 l 793 38 q 821 49 810 38 q 832 76 832 61 q 819 106 832 94 l 365 515 q 313 536 343 536 q 258 513 281 536 q 235 457 235 489 l 235 160 q 270 73 235 108 q 357 38 306 38 l 357 18 l 0 18 l 0 38 q 87 74 51 38 q 122 161 122 110 l 122 949 q 87 1035 122 1000 q 0 1071 51 1071 l 0 1090 l 357 1090 l 357 1071 q 271 1035 307 1071 q 235 949 235 1000 l 235 618 z "},"L":{"ha":917,"x_min":21,"x_max":896,"o":"m 894 221 l 894 18 l 22 18 l 22 38 q 108 74 72 38 q 144 160 144 110 l 144 949 q 108 1035 144 999 q 22 1071 72 1071 l 22 1090 l 379 1090 l 379 1071 q 292 1035 328 1071 q 256 949 256 999 l 256 128 q 282 64 256 90 q 346 38 308 38 l 547 38 q 744 86 651 38 q 894 221 836 135 z "},"M":{"ha":1361,"x_min":21,"x_max":1340,"o":"m 1339 38 l 1339 18 l 982 18 l 982 38 q 1069 74 1033 38 q 1106 161 1106 110 l 1106 956 q 1088 976 1106 972 q 1064 965 1071 981 l 613 26 q 608 20 611 22 q 600 18 604 18 q 586 26 590 18 l 207 963 q 182 977 200 981 q 164 954 164 974 l 164 161 q 200 74 164 110 q 288 38 236 38 l 288 18 l 22 18 l 22 38 q 108 74 72 38 q 144 161 144 110 l 144 949 q 108 1035 144 999 q 22 1071 72 1071 l 22 1090 l 292 1090 l 613 300 q 667 261 626 263 q 724 296 707 260 l 1106 1090 l 1339 1090 l 1339 1071 q 1253 1035 1289 1071 q 1217 949 1217 999 l 1217 161 q 1253 74 1217 110 q 1339 38 1289 38 z "},"N":{"ha":1086,"x_min":22,"x_max":1065,"o":"m 1064 1071 q 976 1035 1013 1071 q 940 949 940 999 l 940 161 q 976 74 940 110 q 1064 38 1013 38 l 1064 18 l 778 18 l 228 989 q 186 1004 214 1015 q 164 971 164 997 l 164 160 q 200 73 164 108 q 286 38 236 38 l 286 18 l 22 18 l 22 38 l 24 38 q 109 73 74 38 q 144 160 144 108 l 144 949 q 109 1035 144 999 q 22 1071 74 1071 l 22 1090 l 308 1090 l 857 119 q 888 103 867 103 q 911 113 901 103 q 921 136 921 122 l 921 949 q 885 1035 921 999 q 799 1071 850 1071 l 799 1090 l 1064 1090 l 1064 1071 z "},"O":{"ha":1161,"x_min":22,"x_max":1139,"o":"m 1054 846 q 1117 708 1094 785 q 1139 554 1139 631 q 1117 401 1139 478 q 1054 264 1094 324 q 846 72 992 168 q 768 33 811 50 q 396 32 583 -40 q 315 72 351 49 q 107 264 169 168 q 44 401 67 324 q 22 554 22 478 q 44 708 22 631 q 107 846 67 785 q 315 1036 169 940 q 396 1076 351 1060 q 768 1076 583 1149 q 846 1036 811 1060 q 1054 846 992 940 m 965 311 q 1006 554 1006 426 q 965 797 1006 682 q 822 1004 913 936 q 814 1011 818 1008 q 581 1085 710 1085 q 347 1011 451 1085 q 339 1004 343 1008 q 196 797 249 936 q 156 554 156 682 q 196 311 156 426 q 339 104 249 172 q 347 97 343 101 q 581 24 451 24 q 814 97 710 24 q 822 104 818 101 q 965 311 913 172 z "},"P":{"ha":878,"x_min":21,"x_max":863,"o":"m 856 843 q 814 692 861 767 q 700 584 772 622 q 546 546 628 546 l 346 544 q 282 518 308 544 q 256 454 256 492 l 256 160 q 292 74 256 110 q 379 38 328 38 l 379 18 l 21 18 l 21 38 q 108 74 72 38 q 144 160 144 110 l 144 949 q 108 1035 144 999 q 21 1071 72 1071 l 21 1090 l 588 1090 q 770 1016 692 1086 q 856 843 849 946 m 704 682 q 744 822 744 746 q 743 850 744 838 q 658 1008 733 946 q 486 1071 583 1071 l 256 1071 l 256 654 q 282 590 256 617 q 346 564 308 564 l 478 564 q 608 594 547 564 q 704 682 669 625 z "},"Q":{"ha":1219,"x_min":22,"x_max":1197,"o":"m 1197 19 l 996 -182 l 832 -49 l 774 -3 l 744 21 q 417 26 581 -29 q 319 72 363 44 q 108 263 172 168 q 46 401 68 324 q 22 554 24 478 q 46 708 24 631 q 108 846 68 785 q 319 1038 172 940 q 393 1074 353 1058 q 764 1082 575 1146 q 860 1038 818 1064 q 1071 846 1008 940 q 1134 708 1111 785 q 1157 554 1157 631 q 1134 401 1157 478 q 1071 263 1111 324 q 860 72 1008 168 q 786 35 826 51 q 767 28 778 31 l 788 11 q 989 -53 875 -60 q 1183 33 1103 -47 l 1197 19 m 429 56 q 668 29 543 4 q 690 50 685 33 q 682 78 694 67 q 465 307 561 192 q 283 578 344 451 q 232 854 207 736 q 239 882 235 869 q 200 797 218 844 q 157 554 157 682 q 200 311 157 426 q 344 104 253 172 q 429 56 381 76 m 800 81 q 833 103 818 90 l 836 104 q 981 311 926 172 q 1022 554 1022 426 q 981 797 1022 682 q 836 1004 926 936 q 750 1053 799 1032 q 460 1065 611 1115 q 250 850 279 990 q 300 586 226 739 q 479 318 360 463 q 693 93 574 206 q 744 69 715 72 q 800 81 774 65 z "},"R":{"ha":1047,"x_min":21,"x_max":1026,"o":"m 522 546 l 471 546 l 988 51 q 1026 38 1004 38 l 1026 18 l 757 18 l 757 38 q 793 63 783 38 q 783 106 803 88 l 375 500 q 256 546 324 546 l 256 161 q 292 74 256 110 q 378 38 328 38 l 379 38 l 379 18 l 21 18 l 21 38 q 108 74 72 38 q 144 161 144 110 l 144 949 q 108 1035 144 1000 q 21 1071 72 1071 l 21 1090 l 569 1090 q 753 1017 675 1088 q 838 843 831 946 q 800 697 843 771 q 683 586 758 626 q 522 546 608 546 m 256 564 l 460 564 q 590 594 529 564 q 686 682 651 625 q 728 822 728 746 q 725 850 728 836 q 640 1008 715 944 q 468 1071 565 1071 l 256 1071 l 256 564 z "},"S":{"ha":829,"x_min":21,"x_max":807,"o":"m 151 872 q 188 767 151 813 q 281 694 224 722 q 409 641 339 665 q 549 589 479 617 q 676 526 618 561 q 771 432 735 490 q 807 296 807 374 q 706 81 807 164 q 439 -3 606 -3 q 316 10 376 -3 q 214 42 256 24 q 140 80 172 61 q 90 111 107 99 l 75 125 l 21 403 l 40 407 q 218 117 113 219 q 456 14 324 14 q 637 79 565 14 q 708 244 708 144 q 672 357 708 310 q 578 434 636 404 q 451 489 521 464 q 311 542 381 514 q 183 603 242 569 q 89 694 125 638 q 53 825 53 750 q 158 1030 53 949 q 424 1111 263 1111 q 735 1019 553 1111 l 788 742 l 768 738 q 603 1002 692 910 q 397 1094 514 1094 q 222 1029 292 1094 q 151 872 151 964 z "},"T":{"ha":917,"x_min":21,"x_max":896,"o":"m 875 808 q 785 993 865 918 q 596 1071 704 1068 l 514 1071 l 514 160 q 550 74 514 110 q 638 38 586 38 l 638 18 l 279 18 l 279 38 q 367 74 331 38 q 403 160 403 110 l 403 1071 l 321 1071 q 131 993 211 1068 q 42 808 51 918 l 22 808 l 28 888 l 46 1090 l 871 1090 l 888 888 l 894 808 l 875 808 z "},"U":{"ha":1111,"x_min":21,"x_max":1090,"o":"m 1090 1090 l 1090 1071 q 1003 1035 1039 1071 q 967 947 967 999 l 967 389 q 851 112 967 226 q 574 -3 736 -3 q 270 123 396 -3 q 144 426 144 249 l 144 947 q 108 1035 144 999 q 21 1071 72 1071 l 21 1090 l 381 1090 l 381 1071 q 293 1035 329 1071 q 257 947 257 999 l 257 426 q 350 202 257 294 q 574 110 443 110 l 631 110 q 854 202 761 110 q 947 426 947 294 l 947 947 q 911 1035 947 999 q 824 1071 875 1071 l 824 1090 l 1090 1090 z "},"V":{"ha":1081,"x_min":21,"x_max":1060,"o":"m 1060 1090 l 693 18 l 529 18 l 217 931 q 142 1033 196 994 q 21 1071 88 1071 l 21 1090 l 307 1090 l 636 129 q 651 110 640 118 q 674 103 661 103 q 713 129 703 103 l 976 906 q 960 1019 997 967 q 858 1071 922 1071 l 774 1071 l 774 1090 l 1060 1090 z "},"W":{"ha":1375,"x_min":21,"x_max":1354,"o":"m 1181 38 l 1181 18 l 960 18 l 778 731 q 740 760 771 760 q 703 731 710 760 l 549 128 q 563 65 540 93 q 619 38 585 38 l 619 18 l 400 18 l 158 964 q 108 1041 147 1011 q 21 1071 69 1071 l 21 1090 l 258 1090 l 508 111 q 512 104 508 107 q 519 101 515 101 q 531 111 529 101 l 733 907 l 718 964 q 668 1041 707 1011 q 581 1071 629 1071 l 581 1090 l 818 1090 l 1068 111 q 1072 104 1069 107 q 1079 101 1075 101 q 1090 111 1089 101 l 1288 883 q 1260 1013 1306 954 q 1140 1071 1215 1071 l 1140 1090 l 1354 1090 l 1110 128 q 1122 65 1100 93 q 1181 38 1144 38 z "},"X":{"ha":1088,"x_min":21,"x_max":1065,"o":"m 488 486 q 488 528 501 507 l 200 974 q 123 1045 171 1019 q 21 1071 75 1071 l 21 1090 l 392 1090 l 392 1071 q 349 1053 367 1071 q 332 1011 332 1035 q 342 979 332 994 l 540 669 q 574 651 553 651 q 607 669 594 651 l 806 978 q 808 1040 825 1008 q 754 1071 790 1071 l 754 1090 l 1024 1090 l 1024 1071 q 906 1041 961 1071 q 815 957 850 1011 l 599 622 q 599 579 585 601 l 886 135 q 963 63 915 89 q 1065 38 1011 38 l 1065 18 l 694 18 l 694 38 q 737 56 719 38 q 754 97 754 74 q 744 129 754 114 l 546 439 q 513 456 535 456 q 481 439 492 456 l 282 131 q 279 69 263 100 q 332 38 296 38 l 332 18 l 63 18 l 63 38 q 182 68 126 38 q 272 151 238 99 l 488 486 z "},"Y":{"ha":1097,"x_min":21,"x_max":1076,"o":"m 1076 1090 l 1076 1071 q 957 1041 1013 1071 q 867 957 901 1011 l 611 561 q 594 507 594 536 l 594 160 q 631 74 594 110 q 718 38 667 38 l 718 18 l 361 18 l 361 38 q 447 74 411 38 q 483 160 483 110 l 483 522 q 478 543 483 533 l 199 975 q 122 1045 169 1019 q 21 1071 75 1071 l 21 1090 l 392 1090 l 392 1071 q 338 1040 356 1071 q 342 978 321 1008 l 561 638 q 575 625 567 629 q 593 619 583 619 q 643 647 626 619 l 857 979 q 859 1040 876 1008 q 807 1071 842 1071 l 807 1090 l 1076 1090 z "},"Z":{"ha":900,"x_min":21,"x_max":879,"o":"m 813 300 l 838 18 l 22 18 l 728 1071 l 371 1071 q 176 996 258 1071 q 83 808 93 921 l 64 808 l 69 888 l 88 1090 l 878 1090 l 171 38 l 553 38 q 731 116 658 38 q 793 300 803 194 l 813 300 z "}}}
